<svg id="Layer_1" data-name="Layer 1" xmlns="http://www.w3.org/2000/svg" viewBox="0 0 3584 3625"><defs><style>.cls-1{fill:#5bcefa;}.cls-1,.cls-2,.cls-3{fill-rule:evenodd;}.cls-2{fill:#fff;}.cls-3{fill:#f5a9b8;}</style></defs><polygon class="cls-1" points="956.74 973.17 1787.83 1521.49 2618.87 973.17 2070.52 1804.24 2618.87 2635.31 1787.83 2086.99 956.74 2635.31 1505.06 1804.24 956.74 973.17"/><polygon class="cls-1" points="2078.3 1513.72 1787.83 96.42 1497.28 1513.72 79.98 1804.24 1497.28 2094.74 1787.83 3512.07 2078.3 2094.74 3495.63 1804.24 2078.3 1513.72"/><polygon class="cls-2" points="2001.81 2018.27 1787.83 1804.24 1787.83 494.74 1573.75 1590.21 1787.83 1804.24 478.3 1804.24 1573.75 2018.27 1787.83 1804.24 3097.27 1804.24 2001.81 1590.21 1787.83 1804.24 1787.83 3113.71 2001.81 2018.27"/><path class="cls-3" d="M1908.85,261.23c379.08,29.35,720,195.29,973.33,448.65s419.26,594.18,448.64,973.28l-162.17-33.23c-35.58-322-181.19-610.9-398.42-828.11S2264.15,459,1942.11,423.4l-33.26-162.17Zm125.54,612.54L2061.5,1006a837.32,837.32,0,0,1,200.33,100.25l106.1-70a959.65,959.65,0,0,0-333.54-162.53Zm521.36,350.35-70,106.06A841.23,841.23,0,0,1,2586,1530.52l132.23,27.11a958.31,958.31,0,0,0-162.5-333.51Zm162.5,826.73a958.14,958.14,0,0,1-162.5,333.51l-70-106.06A843.8,843.8,0,0,0,2586,2077.94l132.23-27.09Zm-350.32,521.33a958.9,958.9,0,0,1-333.54,162.51l27.11-132.21a841.91,841.91,0,0,0,200.39-100.28l106,70Zm-826.77,162.51a958.89,958.89,0,0,1-333.5-162.51l106.08-70a841,841,0,0,0,200.34,100.28l27.08,132.21Zm-521.3-350.33a959.59,959.59,0,0,1-162.53-333.51l132.24,27.09a840.2,840.2,0,0,0,100.28,200.33l-70,106.09ZM857.33,1557.6a959.54,959.54,0,0,1,162.53-333.48l70,106.09a841.18,841.18,0,0,0-100.28,200.31L857.33,1557.6Zm350.33-521.3a959.2,959.2,0,0,1,333.5-162.53L1514.08,1006a839.06,839.06,0,0,0-200.34,100.25l-106.08-70Zm2123.16,889-162.17,33.24c-35.58,322-181.19,610.92-398.42,828.13s-506.08,362.84-828.18,398.48l-33.2,162.11c379.08-29.31,720-195.27,973.33-448.63s419.32-594.25,448.64-973.33Zm-1664.07,1422-33.25-162.11c-322-35.64-610.91-181.24-828.12-398.48s-362.84-506.07-398.44-828.11l-162.15-33.26c29.32,379.08,195.27,720,448.65,973.33s594.18,419.32,973.31,448.63Zm-1422-1664.09,162.15-33.23c35.6-322,181.2-610.9,398.44-828.11S1311.46,459,1633.5,423.4l33.25-162.17c-379.13,29.35-719.94,195.29-973.31,448.65S274.14,1304.06,244.79,1683.16Z"/></svg>